<svg width="30" height="25" viewBox="0 0 30 25" fill="none" xmlns="http://www.w3.org/2000/svg">
<g clip-path="url(#clip0_1405_222)">
<path d="M16.2967 1.70397C16.2851 1.64845 16.2772 1.59238 16.2731 1.53603C16.2116 0.745106 16.878 0.0592601 17.7632 0.00353927C18.6494 -0.0516232 19.4169 0.544556 19.4788 1.33548C19.5406 2.1264 18.8739 2.81225 17.9887 2.86797C17.9327 2.87177 17.8772 2.87244 17.823 2.87054C17.7871 2.8788 17.7656 2.88271 17.7347 2.90705C17.6436 3.0339 17.9665 3.01023 17.747 3.56465C17.747 3.56465 17.7455 3.6255 17.7211 3.68636C17.7038 3.8992 17.6122 4.52988 17.5991 4.86577C17.6457 4.91445 17.6589 4.93813 17.6537 5.05616C17.633 5.21573 17.592 5.60678 17.5261 5.85735C17.4702 6.07208 17.3721 6.11307 17.293 6.16566C17.1818 6.61053 17.1524 6.97903 16.867 7.51937C16.8411 7.92896 16.8089 8.04051 16.7128 8.24051C16.702 8.84361 16.7486 8.93339 16.2932 9.88835C16.1756 10.335 16.2874 10.644 16.4115 11.1081C16.5385 11.585 16.8908 11.7843 16.9431 12.2727C17.0665 13.423 17.0356 14.2061 16.7594 15.108L17.0005 15.6181C17.2997 15.7407 18.0422 16.0759 17.6305 16.6066C18.2103 16.8788 19.0861 17.1679 19.8086 17.72C20.0992 17.9362 20.4062 18.1719 20.6817 18.4486C21.2062 18.5216 21.1502 18.5588 21.5389 18.7722C22.682 19.3983 24.515 20.6403 25.5776 21.5197C25.7605 21.6152 25.8352 21.684 25.9829 21.7532C26.006 21.7927 26.0123 21.8019 26.0072 21.8126C25.9564 21.9274 25.9583 21.9307 25.9124 22.0222C25.9698 22.0788 26.0767 22.1317 26.1405 22.1813C26.2003 22.198 26.2003 22.1724 26.3028 22.1499C26.4361 22.2615 26.6014 22.3514 26.6606 22.3461C26.8415 22.3052 26.8106 22.3385 26.9635 22.1858C27.0185 22.1352 27.1106 22.1865 27.1106 22.1865C27.168 22.1263 27.2913 22.0063 27.4558 21.9197C27.5871 21.8506 27.8376 21.8429 27.8376 21.8429C27.9214 21.8435 27.9057 21.9204 27.8984 21.9454C27.8037 21.989 27.6029 22.037 27.4902 22.1113C27.2447 22.3381 27.0525 22.6441 27.0525 22.6441C27.5467 22.5838 27.8503 22.6933 28.2622 22.6511C28.4868 22.6395 28.6525 22.6524 28.8884 22.4999C28.8884 22.4999 29.1151 22.3557 29.3182 22.2792C29.5155 22.2024 29.7027 22.2434 29.8763 22.3561C29.9989 22.4797 30.0728 22.4804 29.8863 22.6549C29.819 22.7227 29.7213 22.7984 29.5973 22.908C29.3792 23.1005 29.0856 23.3572 28.7816 23.5695C28.4738 23.7843 28.1244 23.9771 27.9063 24.0656C27.3561 24.4188 27.486 24.3264 27.0533 24.6765C26.9987 24.7201 26.8539 24.7982 26.7836 24.8398C26.613 24.9399 26.5597 24.8565 26.4485 24.6732C26.4485 24.6732 26.3976 24.6048 26.3136 24.4585C26.2219 24.2989 26.153 24.1165 26.1809 24.1195C26.0784 24.1079 25.6169 23.6246 25.6158 23.521C25.5182 23.501 25.102 23.141 25.0871 23.0722L24.7183 22.8081C24.2965 22.8864 24.1998 22.6523 23.0856 21.946C22.9584 21.944 22.7621 21.8827 22.4806 21.6962C21.9779 21.3365 20.7717 20.5225 20.5672 20.4295C20.3476 20.3296 20.0852 20.2354 19.9242 20.1167C19.6831 20.0771 19.5512 20.0545 19.4306 20.0245C19.3074 19.9944 19.1953 19.9554 18.8833 19.9181C18.3754 19.8617 17.8487 19.6739 17.3472 19.4497C17.1099 19.3492 16.9031 19.2979 16.6988 19.2194C16.2403 19.0464 15.8472 18.8907 15.5426 18.8278C15.4263 18.8175 14.8739 18.6695 14.5841 18.5184C14.4836 18.4721 14.4255 18.4279 14.3595 18.4144C14.2074 18.3831 14.1098 18.4369 14.041 18.4575C13.6694 18.6305 13.3215 18.7799 13 18.9344C12.7007 19.0774 12.4253 19.2259 12.1333 19.3761C11.8699 19.512 11.5657 19.64 11.2529 19.7735C11.2529 19.7735 10.3611 20.1728 9.87402 20.328C9.45142 20.6362 8.58759 21.1694 8.06037 21.4335C7.79926 21.5444 7.29203 21.8315 7.05804 21.8957C6.92455 21.9917 6.44895 22.2949 6.0766 22.5449C5.78886 22.7372 5.5715 22.8993 5.5715 22.8993C5.40438 23.0332 5.41576 23.0968 5.09802 22.9762C5.00978 23.0409 4.94166 23.0812 4.88491 23.1184C4.65542 23.2671 4.63592 23.2313 4.55205 23.2274C4.39206 23.3511 4.37194 23.2871 4.23207 23.4295C4.1402 23.5566 4.2342 23.5262 4.04046 23.5879C3.99958 23.6019 3.98021 23.646 3.94871 23.6705C3.79297 23.7851 3.79234 24.1089 3.41924 24.132C3.20325 24.2697 3.2585 24.4359 3.09351 24.4287C3.10363 24.5715 2.80152 24.78 2.74703 24.7793C2.2713 24.9259 2.2383 24.6135 1.66721 24.8467C1.59334 24.8769 1.48497 24.9603 1.34223 24.9844C1.09111 25.0268 0.78763 24.9824 0.602515 24.8544C0.311156 24.6537 0.0429201 24.2666 0.0429201 24.2666C-0.0497 24.071 0.00417212 23.9474 0.293282 23.7626C0.413775 23.6942 0.436024 23.6429 0.638388 23.6305C0.738883 23.5966 0.711509 23.6485 0.891 23.591C0.994994 23.5576 0.994994 23.5814 1.20448 23.5654C1.25248 23.5365 1.31998 23.5262 1.41035 23.5C1.57609 23.4512 1.73758 23.3968 1.73758 23.3968C1.73758 23.3968 1.77983 23.3589 1.93919 23.3725C2.07406 23.3231 2.21255 23.2498 2.28355 23.2274C2.26555 23.0366 2.28855 23.0455 2.38754 22.9687C2.51091 22.8736 2.53316 22.8892 2.62503 22.948C2.66378 22.928 2.6824 22.9212 2.67815 22.8922C2.66303 22.7928 2.56766 22.746 2.59641 22.5269C2.55404 22.4392 2.49166 22.3308 2.50529 22.2654C2.52541 22.1948 2.54479 22.1608 2.59278 22.1383C2.64378 22.1141 2.66028 22.1468 2.68753 22.1742C2.73628 22.2249 2.77577 22.3749 2.77577 22.3749C2.79302 22.5442 2.85177 22.7634 3.03901 22.6397C3.1495 22.5397 3.171 22.2731 3.39624 22.3302L3.55698 22.455C3.69335 22.3404 3.69985 22.3404 3.78159 22.2943C3.78159 22.2943 3.65385 22.179 3.76585 22.0892C3.84259 22.0282 3.93509 21.9846 4.09945 21.8219C4.55068 21.3764 4.78242 21.1796 5.27039 20.8206C6.24396 20.1052 7.35165 19.6035 8.05549 19.3541C8.28498 19.0938 8.50822 18.9208 9.01756 18.8772C9.62303 17.9637 10.7825 17.148 11.0487 17.0179C11.2653 16.6672 11.3593 16.7045 11.6427 16.634C11.8672 16.4732 11.9182 16.4732 12.0187 16.3053C12.1163 15.9587 11.7934 15.0324 12.6176 14.9856C12.7927 14.7646 12.749 14.8177 12.9441 14.6088C12.8121 14.3178 12.7576 14.0743 12.7217 13.8646C12.7152 13.8403 12.3946 13.6384 12.4856 13.3749C12.3494 13.23 12.0947 12.892 12.015 12.7337C11.9785 12.7344 11.9483 12.7221 11.9082 12.7172C11.8665 12.7112 11.8148 12.7134 11.7568 12.7089C11.6284 13.0048 11.4886 13.0268 11.2603 13.0921C10.8528 13.868 10.7093 14.1964 9.55641 14.8378C9.09869 15.2956 8.95232 15.8057 8.95444 15.7981C8.87557 15.9493 8.90345 16.1609 8.94507 16.2744C8.88482 16.4423 8.90057 16.4589 8.90057 16.4589C8.9257 16.5224 8.99107 16.6063 9.07131 16.6242C9.2098 16.6569 9.3483 16.6517 9.3403 16.7895C9.32167 16.9619 9.06844 16.9336 8.94857 16.9144C8.48722 16.849 8.63296 16.5804 8.33798 16.6701C8.11199 16.8022 8.02737 17.1919 7.65851 17.1413C7.60976 17.1125 7.62476 17.0273 7.65776 16.9658C7.70951 16.8696 7.80125 16.7901 7.74676 16.7541C7.50624 16.8229 7.26613 16.8928 7.02642 16.9638C6.80043 17.0188 6.55282 16.9182 6.77531 16.7854C6.87868 16.7496 7.02642 16.7046 7.20866 16.6003C7.20866 16.6003 7.30253 16.4862 7.12254 16.5432C6.92593 16.606 6.63607 16.6451 6.42808 16.6246C6.42808 16.6246 5.99685 16.5741 5.9416 16.5438C5.88561 16.5135 5.83474 16.3945 5.9696 16.3952C6.14034 16.3965 6.56795 16.3515 6.89943 16.2727C7.05942 16.217 7.36365 16.0562 7.53439 15.9805C7.53439 15.9805 7.71951 15.7395 7.82138 15.692C7.99137 15.5172 8.13486 15.4139 8.28548 15.235C8.4326 14.9637 8.58471 14.5345 9.07181 13.8698C9.29705 13.5634 9.57691 13.2065 9.92914 12.8873C9.92914 12.8873 10.0203 12.3766 10.4787 12.0131C10.58 11.8003 10.7335 11.5497 10.8848 11.3177C10.9437 11.2285 10.9996 11.1511 11.0556 11.0664C11.1977 10.8671 11.3469 10.496 11.9008 10.4376C11.9008 10.4376 12.1375 10.2813 12.2286 10.1702C12.3708 10.0619 12.3384 9.89337 12.4539 9.77467C12.2774 9.62091 11.8262 9.33181 11.7823 8.92993C11.7357 8.5037 11.9057 8.15307 12.1941 7.89356C12.5141 7.6077 12.8514 7.46477 13.261 7.48654C13.7724 7.55444 13.8693 7.70574 14.0322 7.85571C14.1885 7.99797 14.2467 7.9064 14.3127 8.07301C14.7418 8.17496 14.718 8.13007 14.7144 8.41213C14.7804 8.49153 14.8909 8.56534 14.8894 8.73005C15.0336 8.46272 15.0622 8.41348 15.4476 8.11924C15.5387 7.88016 15.6006 7.645 15.6806 7.40592C15.7557 7.18483 15.8491 6.95725 15.9214 6.78607C15.8447 6.30278 16.0023 6.22272 16.2127 5.79906C16.1754 5.74077 16.1834 5.72414 16.1992 5.62855C16.2809 5.3485 16.4087 4.97799 16.4847 4.73635C16.4847 4.73635 16.5098 4.6402 16.621 4.63317C16.7173 4.32743 16.8615 3.75827 16.8858 3.64225C16.9848 3.32245 16.9209 3.21983 16.8449 3.03971C16.8205 2.98075 16.8319 2.89678 16.7898 2.83134C16.6699 2.64486 16.5409 2.40255 16.4534 2.22947C16.3967 2.11926 16.3069 1.70386 16.3069 1.70386C16.2299 1.49181 16.2967 1.70397 16.2967 1.70397" fill="white"/>
</g>
<defs>
<clipPath id="clip0_1405_222">
<rect width="30" height="25" fill="white"/>
</clipPath>
</defs>
</svg>
